<?xml version="1.0" standalone="no"?>
<!DOCTYPE svg PUBLIC "-//W3C//DTD SVG 20010904//EN"
 "http://www.w3.org/TR/2001/REC-SVG-20010904/DTD/svg10.dtd">
<svg version="1.0" xmlns="http://www.w3.org/2000/svg"
 width="634" height="634" viewBox="0 0 634 634"
 preserveAspectRatio="xMidYMid meet">

<g transform="translate(0.000000,634.000000) scale(0.100000,-0.100000)"
fill="#F79700" stroke="none">
<path d="M3023 6333 c-17 -3 -23 -11 -23 -29 0 -14 4 -22 10 -19 6 3 10 13 10
21 0 8 7 14 15 14 12 0 15 -13 15 -55 0 -30 -4 -55 -10 -55 -5 0 -10 -4 -10
-8 0 -4 17 -6 38 -3 20 3 29 6 20 9 -25 5 -27 122 -3 122 9 0 20 -10 25 -22 8
-22 9 -22 9 5 1 25 -2 27 -36 26 -21 -1 -48 -4 -60 -6z"/>
<path d="M3205 6315 c-41 -40 -29 -99 25 -117 20 -7 60 8 60 24 0 9 -3 9 -12
0 -36 -36 -88 7 -74 62 9 35 45 54 61 32 15 -20 25 -21 25 -2 0 14 -21 26 -46
26 -8 0 -26 -11 -39 -25z"/>
<path d="M3320 6274 c0 -44 -4 -64 -12 -65 -7 0 -4 -4 7 -9 29 -12 35 -12 29
3 -2 7 11 28 31 47 l35 34 0 -41 c0 -24 -5 -43 -12 -46 -7 -3 -2 -6 12 -6 24
-1 25 1 22 48 -2 27 1 58 7 70 11 19 9 21 -14 21 -16 0 -24 -4 -20 -10 4 -6
-9 -29 -29 -50 l-36 -40 0 31 c0 17 4 39 10 49 7 14 5 19 -10 23 -18 5 -20 0
-20 -59z"/>
<path d="M2898 6319 c-22 -12 -23 -42 -4 -59 13 -10 12 -16 -5 -47 -13 -23
-15 -34 -7 -31 7 2 19 19 27 36 8 18 20 32 27 32 19 0 29 -41 13 -51 -10 -6
-6 -9 13 -9 26 0 26 1 16 37 -5 20 -8 51 -6 70 4 31 2 33 -27 33 -16 0 -38 -5
-47 -11z m52 -29 c0 -23 -5 -30 -19 -30 -20 0 -37 32 -26 50 3 5 15 10 26 10
14 0 19 -7 19 -30z"/>
<path d="M2770 6311 c-28 -5 -34 -10 -32 -26 5 -29 12 -32 12 -6 0 16 5 22 18
19 12 -2 19 -17 23 -53 3 -28 2 -55 -2 -61 -6 -7 1 -9 22 -6 20 3 27 7 18 12
-7 5 -14 33 -17 64 -4 45 -2 56 11 56 8 0 17 -10 20 -22 4 -12 8 -20 11 -17 3
3 3 15 -1 27 -6 23 -17 25 -83 13z"/>
<path d="M3476 6314 c13 -6 6 -103 -8 -121 -8 -10 -1 -13 28 -12 22 1 31 3 22
6 -19 5 -23 36 -12 92 7 35 33 42 41 11 7 -25 23 -26 23 -1 0 10 -7 22 -16 25
-18 7 -95 7 -78 0z"/>
<path d="M3594 6301 c6 -9 -6 -84 -19 -113 -6 -15 -2 -18 21 -18 18 0 24 3 17
8 -7 4 -10 17 -6 30 4 16 13 22 34 22 25 0 29 -4 29 -29 0 -16 -6 -32 -12 -34
-7 -3 -2 -6 12 -6 24 -1 25 2 27 56 2 31 8 60 14 63 7 5 5 9 -6 14 -28 10 -32
7 -27 -25 4 -29 3 -30 -29 -27 -35 3 -36 6 -24 46 5 18 2 22 -15 22 -12 0 -19
-4 -16 -9z"/>
<path d="M2631 6293 c-15 -3 -20 -8 -13 -12 13 -8 35 -108 27 -121 -4 -7 20
-5 73 6 12 2 22 11 22 19 0 19 -7 19 -26 0 -21 -21 -41 -19 -49 5 -8 25 3 43
21 36 9 -4 14 2 14 17 0 17 -2 19 -9 8 -13 -20 -41 -6 -41 20 0 18 5 21 30 17
17 -3 30 -1 30 4 0 8 -37 9 -79 1z"/>
<path d="M2535 6273 c-45 -10 -47 -12 -31 -29 18 -17 23 -104 6 -104 -5 0 -10
-4 -10 -10 0 -5 7 -7 16 -3 13 5 15 18 12 69 -3 55 -2 64 13 64 13 0 20 -14
28 -51 6 -28 9 -55 5 -60 -6 -10 29 -13 39 -3 3 4 0 12 -7 20 -15 14 -30 90
-21 105 6 9 -14 10 -50 2z"/>
<path d="M3785 6270 c-3 -5 -1 -18 5 -29 17 -34 13 -60 -10 -54 -23 6 -24 8
-9 35 22 42 1 26 -28 -21 -28 -44 -29 -50 -13 -54 11 -3 17 1 16 12 -1 11 7
16 24 16 19 0 25 -5 24 -22 0 -17 7 -23 35 -28 42 -8 66 15 77 71 4 24 12 34
25 34 11 0 19 -5 19 -11 0 -25 -23 -99 -31 -99 -20 0 -7 -18 15 -22 17 -4 23
-1 19 9 -7 18 16 106 29 114 6 4 -6 12 -28 18 -54 15 -63 14 -57 -7 7 -28 -22
-88 -46 -95 -23 -6 -26 1 -36 80 -7 53 -18 72 -30 53z"/>
<path d="M2376 6229 c-65 -51 0 -160 69 -115 36 24 35 86 -1 115 -15 12 -30
21 -34 21 -4 0 -19 -9 -34 -21z m64 -20 c24 -44 3 -107 -32 -94 -19 7 -38 48
-38 80 0 43 49 53 70 14z"/>
<path d="M2260 6203 c-25 -8 -51 -17 -59 -19 -12 -4 -12 -6 1 -17 18 -15 41
-93 32 -109 -5 -8 -2 -9 10 -5 10 4 23 7 29 7 9 0 8 3 0 8 -16 10 -45 104 -35
113 4 4 16 9 26 11 15 2 23 -8 36 -47 9 -27 15 -55 13 -62 -3 -7 3 -10 16 -6
14 4 18 9 13 17 -15 18 -35 104 -27 115 8 14 1 13 -55 -6z"/>
<path d="M4015 6210 c8 -13 -15 -92 -31 -106 -20 -16 61 -42 84 -27 30 18 27
51 -7 71 -35 19 -37 25 -16 45 13 13 13 16 -1 21 -23 9 -36 7 -29 -4z m45 -75
c14 -17 7 -43 -15 -52 -25 -9 -37 10 -26 40 12 31 23 34 41 12z"/>
<path d="M4137 6174 c7 -18 -25 -111 -40 -118 -7 -2 -5 -5 5 -5 9 -1 25 -4 35
-7 12 -4 14 -3 5 3 -9 7 -9 20 3 61 9 29 20 52 26 52 16 0 1 17 -20 23 -14 3
-18 1 -14 -9z"/>
<path d="M2060 6138 c-14 -7 -26 -12 -27 -13 -1 -1 7 -20 18 -43 12 -23 22
-53 23 -66 1 -22 3 -23 35 -11 19 6 41 21 49 33 12 18 11 23 -6 40 -11 11 -22
31 -24 44 -4 27 -30 33 -68 16z m50 -28 c0 -11 -7 -23 -15 -27 -19 -7 -20 -5
-29 25 -6 19 -4 22 18 22 19 0 26 -5 26 -20z m28 -57 c2 -14 -4 -26 -16 -32
-17 -9 -22 -7 -30 19 -8 21 -7 30 1 34 23 9 42 1 45 -21z"/>
<path d="M4253 6136 c3 -7 -5 -38 -17 -69 -21 -51 -22 -56 -6 -60 10 -2 17 1
17 7 -1 47 13 57 54 36 17 -10 18 -13 5 -39 -14 -27 -14 -28 21 -40 31 -12 37
-11 45 2 7 13 13 14 33 5 26 -12 34 -38 13 -38 -7 0 -5 -5 5 -11 10 -6 20 -9
22 -7 1 1 6 36 10 76 9 88 -4 94 -59 27 -21 -25 -46 -45 -57 -45 -10 0 -19 2
-19 5 0 15 35 92 46 101 11 9 9 13 -12 22 -19 9 -25 9 -23 -1 6 -46 -2 -54
-45 -38 -18 8 -23 15 -19 30 3 12 12 21 20 21 20 0 8 16 -18 23 -14 4 -19 2
-16 -7z m180 -140 c-5 -10 -13 -12 -22 -6 -12 7 -11 13 5 37 18 27 19 27 22 6
2 -12 0 -29 -5 -37z"/>
<path d="M1930 6080 c-28 -28 -25 -66 9 -100 33 -33 63 -31 88 6 18 28 11 66
-17 94 -25 25 -55 25 -80 0z m76 -32 c21 -41 11 -78 -21 -78 -43 0 -74 88 -38
108 24 14 41 5 59 -30z"/>
<path d="M1860 6050 c-9 -6 -14 -21 -12 -45 2 -19 -1 -35 -7 -35 -14 0 -33 38
-25 51 4 7 -2 7 -16 -1 -13 -7 -19 -15 -14 -19 13 -8 50 -93 46 -105 -2 -4 4
-6 13 -2 9 3 19 6 21 6 2 0 -3 11 -12 25 -23 35 -11 42 31 20 46 -26 57 -11
11 16 -38 22 -42 32 -26 73 11 29 11 29 -10 16z"/>
<path d="M4567 6003 c9 -3 3 -19 -19 -51 -17 -26 -36 -50 -41 -53 -5 -3 -1 -9
8 -13 23 -8 27 -8 20 4 -4 7 41 90 50 90 1 0 -2 -25 -8 -56 -5 -30 -6 -58 -3
-61 4 -4 24 11 46 32 22 22 40 36 40 33 0 -12 -33 -83 -40 -88 -5 -3 9 -15 31
-27 29 -16 39 -18 39 -8 0 24 17 26 41 5 20 -16 22 -21 9 -29 -16 -11 -17 -10
31 -39 39 -23 50 -27 48 -14 -5 27 2 33 31 27 43 -9 70 2 70 30 0 21 -41 65
-59 65 -3 0 -19 -23 -36 -50 -40 -68 -69 -69 -55 -2 25 121 22 124 -51 62 -72
-60 -82 -54 -52 31 11 31 22 48 30 44 21 -7 15 3 -8 16 -18 9 -26 6 -60 -27
-42 -41 -43 -40 -29 21 10 43 0 66 -29 64 -10 0 -11 -2 -4 -6z m195 -153 c-4
-30 -25 -40 -38 -18 -4 6 3 19 16 30 28 23 27 23 22 -12z m136 -59 c-3 -28
-32 -41 -51 -22 -7 7 -5 18 7 35 21 32 48 24 44 -13z"/>
<path d="M1691 5971 c-8 -5 -17 -26 -20 -47 -8 -47 -28 -55 -38 -15 -7 27 -10
28 -27 15 -11 -8 -15 -14 -8 -14 14 0 64 -95 55 -104 -4 -3 0 -6 9 -6 24 0 28
11 12 36 -23 34 -8 49 23 24 40 -32 60 -24 24 9 -48 45 -38 115 13 95 8 -3 22
-22 32 -42 14 -30 15 -39 4 -56 -12 -19 -12 -20 3 -7 23 19 21 73 -3 99 -22
23 -55 28 -79 13z"/>
<path d="M1522 5867 c-28 -29 -28 -57 -1 -91 33 -42 109 -28 109 20 0 16 -3
14 -13 -6 -17 -34 -42 -36 -72 -6 -28 28 -33 67 -10 86 12 10 18 10 30 0 12
-10 15 -10 15 4 0 24 -33 20 -58 -7z"/>
<path d="M1415 5768 c4 -24 10 -60 14 -81 6 -36 7 -37 26 -23 11 9 14 16 8 16
-20 0 -15 28 7 40 22 12 44 5 35 -11 -9 -13 9 -11 22 2 9 9 -4 23 -48 55 -32
24 -62 44 -65 44 -4 0 -3 -19 1 -42z m40 -8 c13 -15 15 -24 8 -31 -15 -15 -30
-4 -35 26 -6 30 3 32 27 5z"/>
<path d="M4932 5754 c-35 -24 -46 -51 -32 -84 16 -38 70 -61 70 -29 0 4 -9 5
-20 2 -14 -4 -23 2 -31 21 -11 23 -10 31 8 54 27 37 74 38 84 2 6 -23 7 -23
14 -6 6 14 2 23 -16 37 -30 23 -48 24 -77 3z"/>
<path d="M1285 5715 c-19 -16 -25 -25 -15 -25 15 -1 70 -71 70 -90 0 -14 7
-13 36 6 39 26 49 52 29 74 -10 11 -24 16 -33 13 -9 -4 -13 -2 -9 4 12 19 -4
43 -27 43 -11 -1 -34 -12 -51 -25z m60 -15 c0 -31 -21 -37 -35 -9 -10 17 -9
23 1 30 21 13 34 5 34 -21z m45 -36 c11 -12 10 -18 -3 -31 -13 -13 -19 -14
-31 -3 -19 15 -21 36 -3 43 20 9 24 8 37 -9z"/>
<path d="M5034 5649 c-10 -17 13 -36 27 -22 12 12 4 33 -11 33 -5 0 -12 -5
-16 -11z"/>
<path d="M5130 5649 c0 -18 -63 -89 -79 -89 -13 0 -13 -3 2 -17 12 -13 20 -15
25 -7 8 12 102 36 102 25 -1 -10 -46 -58 -58 -62 -8 -3 -4 -9 8 -17 16 -10 20
-10 20 0 0 7 17 32 38 55 27 29 36 45 28 53 -12 12 -29 14 -22 1 3 -5 -17 -13
-44 -18 -28 -6 -50 -7 -50 -4 1 17 51 61 63 55 6 -4 3 2 -7 14 -21 25 -26 27
-26 11z"/>
<path d="M1167 5620 c-27 -21 -35 -40 -18 -40 5 0 11 9 14 21 8 30 42 21 42
-11 0 -21 4 -25 25 -25 16 0 26 -6 28 -19 5 -23 -16 -38 -43 -29 -17 5 -18 4
-6 -10 17 -21 47 -7 63 28 12 26 -2 55 -26 55 -6 0 -16 10 -21 22 -14 30 -27
32 -58 8z"/>
<path d="M1095 5560 c-10 -11 -13 -20 -8 -20 6 0 13 -23 15 -50 1 -28 0 -50
-3 -50 -9 0 -49 58 -49 72 0 9 -5 8 -15 -3 -14 -14 -11 -20 30 -62 30 -30 44
-51 39 -59 -4 -7 2 -4 15 6 12 11 17 22 12 25 -5 3 -10 27 -12 53 l-4 47 27
-26 c16 -15 28 -33 28 -41 0 -12 4 -11 21 4 15 13 17 20 7 23 -22 6 -60 45
-72 74 -12 27 -12 27 -31 7z"/>
<path d="M5245 5541 c-3 -5 5 -11 17 -13 35 -5 31 -43 -4 -43 -19 1 -24 -3
-17 -11 15 -18 -1 -45 -25 -42 -14 2 -21 10 -20 24 0 14 -4 20 -13 17 -7 -3
-13 -9 -13 -14 0 -16 40 -49 59 -49 25 0 45 26 37 47 -4 10 -4 14 0 11 10 -10
44 10 44 26 0 12 -41 56 -53 56 -3 0 -8 -4 -12 -9z"/>
<path d="M5370 5441 c0 -19 -62 -91 -79 -91 -10 0 -6 -9 14 -30 35 -37 78 -38
83 -3 2 12 12 25 23 28 28 9 23 47 -11 80 -16 16 -30 23 -30 16z m40 -46 c15
-18 5 -35 -20 -35 -10 0 -22 5 -25 10 -7 11 12 40 25 40 4 0 13 -7 20 -15z
m-40 -79 c-15 -20 -21 -20 -45 -2 -19 14 -19 14 0 35 19 22 19 22 39 2 16 -17
17 -23 6 -35z"/>
<path d="M991 5396 c-12 -14 -5 -26 16 -26 15 0 18 26 4 34 -5 3 -14 0 -20 -8z"/>
<path d="M872 5347 c-12 -13 -22 -34 -22 -48 1 -70 98 -99 130 -38 9 15 9 24
1 32 -8 8 -11 5 -11 -10 0 -52 -61 -52 -95 1 -22 33 -5 70 27 60 14 -4 19 -2
16 7 -7 22 -23 20 -46 -4z"/>
<path d="M5427 5290 c-58 -23 -65 -29 -52 -40 10 -8 15 -9 15 -1 0 17 25 13
44 -8 15 -17 16 -20 3 -28 -13 -6 -13 -11 -3 -25 11 -15 16 -9 45 49 18 36 29
69 24 73 -4 5 -39 -4 -76 -20z m45 -19 c-12 -22 -20 -27 -29 -19 -18 15 -16
23 10 36 34 17 37 14 19 -17z"/>
<path d="M771 5236 l-32 -33 24 -7 c14 -3 39 -22 56 -42 26 -29 35 -34 46 -24
17 14 20 35 5 25 -6 -4 -17 -2 -25 5 -11 9 -11 16 3 40 16 27 15 30 -2 49 -26
28 -37 27 -75 -13z m67 -9 c2 -10 1 -25 -2 -33 -5 -13 -11 -12 -36 6 -25 18
-29 25 -19 36 16 20 53 14 57 -9z"/>
<path d="M5509 5217 c-17 -13 -39 -50 -39 -65 0 -17 50 -63 61 -56 6 4 2 11
-13 18 -12 6 -24 21 -26 32 -4 29 40 66 74 62 25 -3 29 -7 27 -32 -2 -28 -1
-28 14 -13 16 15 15 18 -7 42 -25 27 -65 32 -91 12z"/>
<path d="M690 5138 c0 -7 16 -38 35 -68 20 -31 31 -58 26 -63 -13 -13 -109 45
-104 63 3 10 -1 8 -11 -4 -9 -11 -16 -24 -16 -29 0 -12 52 -78 57 -73 3 3 -8
22 -23 42 l-29 38 50 -29 c28 -16 52 -32 55 -37 3 -4 18 8 32 26 27 34 27 34
5 40 l-21 5 24 26 c22 23 26 24 36 10 11 -15 13 -15 22 1 9 16 1 21 -61 41
-85 27 -77 26 -77 11z m80 -39 c0 -4 -6 -12 -14 -18 -10 -9 -17 -6 -30 13 -22
34 -21 36 14 23 17 -6 30 -14 30 -18z"/>
<path d="M5597 5109 c-27 -22 -53 -36 -59 -33 -6 4 -5 -2 1 -15 11 -20 12 -20
31 -1 33 33 59 22 35 -14 -20 -28 -19 -52 5 -76 27 -27 52 -25 89 6 56 46 27
113 -43 101 -43 -7 -55 15 -20 33 13 8 24 17 24 21 0 20 -19 13 -63 -22z m116
-61 c6 -20 -13 -55 -38 -68 -52 -28 -85 13 -44 56 24 26 74 33 82 12z"/>
<path d="M5760 4983 c0 -17 -88 -75 -101 -67 -8 4 -7 0 0 -15 l12 -21 21 20
c39 36 50 21 22 -32 -10 -19 -12 -34 -6 -40 6 -6 15 6 26 33 16 41 18 41 56
36 38 -5 39 -4 28 16 -7 14 -13 17 -16 9 -4 -14 -58 -16 -67 -2 -4 6 7 16 24
23 29 12 30 15 16 33 -8 10 -15 14 -15 7z"/>
<path d="M562 4968 c-19 -19 -14 -30 9 -18 15 9 31 8 66 -4 55 -19 66 -20 61
-5 -2 6 -7 10 -11 10 -4 0 -25 6 -48 14 -50 18 -62 18 -77 3z"/>
<path d="M615 4908 c22 -24 41 -44 42 -46 1 -2 6 6 12 17 9 16 9 19 -2 16 -7
-3 -26 8 -42 25 -16 16 -33 30 -39 30 -5 0 8 -19 29 -42z"/>
<path d="M5771 4834 c-52 -43 -31 -104 36 -104 61 0 98 82 51 114 -31 22 -52
20 -87 -10z m93 -17 c9 -15 6 -23 -17 -43 -16 -14 -41 -24 -58 -24 -24 0 -29
4 -29 24 0 29 45 68 73 64 11 -2 25 -11 31 -21z"/>
<path d="M480 4836 c0 -7 19 -37 41 -65 54 -68 42 -85 -30 -46 -28 16 -51 33
-51 39 0 6 -5 4 -10 -4 -13 -20 -12 -30 3 -30 6 0 19 -4 27 -10 12 -7 12 -12
0 -34 -15 -30 -32 -33 -54 -11 -13 14 -16 13 -27 -6 -7 -14 -7 -19 0 -15 10 6
99 -38 111 -56 3 -4 12 2 19 14 11 18 11 20 -1 16 -8 -3 -22 0 -33 8 -15 12
-17 18 -7 39 14 30 26 31 50 7 18 -18 19 -17 40 19 24 41 27 53 13 44 -19 -11
-22 17 -5 42 16 25 18 25 30 9 12 -17 13 -17 23 3 14 25 14 34 1 26 -5 -3 -27
-2 -47 4 -87 21 -93 22 -93 7z m77 -29 c5 -6 -8 -37 -16 -36 -3 0 -16 13 -29
29 l-22 29 31 -9 c17 -5 33 -11 36 -13z"/>
<path d="M5907 4748 c-4 -10 -44 -35 -105 -65 -6 -2 27 -61 38 -68 17 -11 60
4 60 19 0 8 10 16 23 18 14 2 23 11 25 24 4 26 -33 91 -41 72z m27 -44 c8 -21
-1 -34 -24 -34 -22 0 -33 23 -17 39 16 16 34 14 41 -5z m-56 -42 c4 -29 -24
-40 -46 -18 -16 16 -16 18 3 32 24 18 39 13 43 -14z"/>
<path d="M5990 4590 c0 -12 -95 -61 -104 -53 -10 10 -7 -10 4 -27 5 -8 10 -10
10 -4 0 9 81 54 99 54 4 0 13 -11 19 -25 11 -25 10 -27 -34 -45 -25 -11 -52
-20 -60 -20 -12 0 -12 -4 -4 -20 9 -17 13 -18 24 -7 7 7 33 21 57 32 24 10 45
20 47 21 5 3 -47 104 -53 104 -3 0 -5 -4 -5 -10z"/>
<path d="M326 4563 c-8 -20 -8 -20 9 -20 28 0 95 -36 95 -52 1 -13 3 -13 15 3
17 23 20 40 5 31 -6 -4 -35 7 -65 23 -44 24 -55 27 -59 15z"/>
<path d="M344 4465 c-19 -29 -27 -31 -47 -10 -16 15 -27 10 -27 -13 0 -9 3
-13 6 -9 9 8 101 -39 106 -55 6 -16 38 44 38 70 0 45 -50 56 -76 17z m60 -17
c17 -27 -4 -42 -37 -27 -30 14 -32 20 -15 37 16 16 38 12 52 -10z"/>
<path d="M6005 4441 c-11 -5 -29 -18 -39 -30 -16 -17 -18 -27 -10 -49 13 -38
54 -50 99 -29 30 14 35 22 35 51 0 25 -7 39 -22 50 -25 18 -34 19 -63 7z m59
-17 c23 -9 19 -50 -6 -68 -31 -22 -75 -20 -87 3 -12 22 3 46 39 60 31 12 35
12 54 5z"/>
<path d="M240 4372 c-7 -20 -15 -42 -17 -49 -3 -7 2 -10 14 -7 25 7 88 -37 88
-61 0 -18 -8 -20 -72 -23 -40 -2 -73 -7 -73 -11 0 -5 21 -26 48 -47 26 -21 49
-42 50 -46 2 -5 8 -8 13 -8 14 0 11 22 -6 34 -22 16 -8 59 17 53 15 -4 23 2
33 26 16 39 5 55 -55 82 -42 19 -45 22 -32 43 7 10 19 8 58 -8 27 -12 52 -27
56 -33 6 -9 8 -9 8 0 0 6 3 19 7 29 4 11 3 15 -5 10 -13 -8 -92 21 -108 40 -8
10 -13 4 -24 -24z m30 -176 c0 -25 -17 -27 -41 -6 l-24 19 33 1 c21 0 32 -5
32 -14z"/>
<path d="M6114 4303 c-9 -14 -24 -18 -68 -18 -54 0 -72 -9 -41 -21 15 -6 69 5
108 21 13 5 17 2 17 -13 0 -15 -12 -25 -45 -37 -24 -10 -51 -15 -58 -12 -11 4
-13 0 -10 -14 6 -21 23 -36 23 -20 0 13 97 44 111 35 12 -7 7 15 -15 69 -10
25 -12 26 -22 10z"/>
<path d="M6160 4192 c0 -11 -101 -43 -113 -35 -6 4 -7 -4 -3 -20 17 -69 35
-93 51 -67 3 6 -1 10 -9 10 -9 0 -17 7 -17 15 -1 8 -2 20 -3 26 -1 7 9 15 22
20 22 8 27 2 23 -28 -1 -7 7 -9 18 -6 18 5 19 7 6 20 -18 17 -13 29 14 36 23
6 36 -19 25 -47 -4 -12 -2 -15 9 -10 14 5 14 10 0 50 -14 41 -23 55 -23 36z"/>
<path d="M150 4120 c0 -11 5 -17 13 -15 26 10 41 -12 31 -44 -9 -30 -10 -30
-36 -17 -23 12 -27 12 -32 -1 -8 -20 -7 -25 2 -19 12 7 112 -26 112 -36 0 -5
5 -6 10 -3 17 10 11 35 -7 35 -34 0 -45 14 -34 43 12 30 32 34 55 11 9 -8 16
-11 16 -6 0 6 3 18 6 26 4 11 2 15 -8 11 -8 -3 -39 3 -69 14 -65 25 -59 25
-59 1z"/>
<path d="M6160 4069 c0 -6 8 -8 19 -4 28 9 36 -23 8 -34 -52 -20 -89 -23 -99
-10 -7 10 -8 4 -3 -16 3 -16 11 -34 16 -40 7 -7 9 -5 7 4 -3 14 51 39 90 40
26 1 30 -24 6 -33 -24 -9 -10 -19 15 -11 11 3 18 11 16 18 -2 7 -9 31 -15 55
-9 35 -15 42 -35 42 -14 0 -25 -5 -25 -11z"/>
<path d="M103 3955 c-5 -24 -6 -42 -2 -39 14 8 103 -18 117 -34 10 -13 12 -13
12 -1 0 8 3 25 6 39 4 19 3 21 -4 11 -15 -21 -126 4 -118 26 3 8 6 17 6 19 0
2 10 4 23 4 18 0 19 2 7 10 -27 18 -36 11 -47 -35z"/>
<path d="M6188 3924 c-13 -14 -22 -15 -47 -6 -25 9 -31 8 -31 -2 0 -8 16 -17
36 -20 26 -5 34 -12 32 -24 -2 -11 -13 -17 -29 -17 -21 0 -25 -3 -21 -23 3
-13 8 -19 11 -13 8 12 100 34 117 27 10 -4 12 3 7 27 -12 67 -40 85 -75 51z
m56 -20 c10 -26 7 -31 -20 -37 -30 -5 -43 15 -24 38 16 20 36 19 44 -1z"/>
<path d="M80 3859 c0 -11 4 -18 8 -16 10 2 67 -62 60 -68 -8 -8 -68 7 -68 17
0 5 -4 6 -10 3 -5 -3 -10 -14 -10 -25 0 -13 5 -17 19 -13 17 4 62 -5 104 -22
13 -5 17 -2 17 15 0 11 -4 19 -9 16 -5 -4 -24 13 -42 35 l-33 42 39 -7 c22 -5
43 -12 46 -18 4 -5 9 -2 13 7 10 27 7 33 -11 29 -10 -3 -42 2 -70 9 -50 13
-53 13 -53 -4z"/>
<path d="M6248 3810 c38 -16 27 -37 -23 -44 -25 -4 -53 -5 -63 -2 -16 5 -18 2
-14 -24 4 -25 6 -28 16 -16 15 20 116 34 116 16 0 -7 -8 -19 -17 -26 -17 -12
-17 -13 -1 -14 25 0 30 16 23 70 -6 46 -9 50 -33 49 -26 0 -26 -1 -4 -9z"/>
<path d="M50 3705 c-25 -66 65 -128 114 -79 22 21 31 63 17 77 -15 15 -26 1
-12 -16 27 -33 -15 -64 -69 -52 -48 11 -64 69 -22 77 15 3 15 4 -1 11 -13 5
-20 0 -27 -18z"/>
<path d="M6208 3629 c-10 -5 -22 -19 -28 -29 -13 -25 -2 -70 17 -70 12 0 12 2
-1 16 -9 8 -16 19 -16 23 0 20 29 42 62 47 31 6 38 3 53 -20 17 -26 17 -27 -1
-41 -18 -14 -18 -14 4 -15 31 0 30 43 -3 75 -25 26 -58 31 -87 14z"/>
<path d="M26 3552 c-2 -4 -6 -30 -7 -57 -3 -47 -2 -50 21 -53 22 -2 23 -1 8 8
-10 6 -18 18 -18 26 0 12 10 13 53 8 28 -4 54 -11 55 -15 8 -21 22 -6 22 24 0
21 -3 28 -9 19 -6 -10 -22 -12 -65 -7 -60 8 -71 20 -31 35 14 5 25 12 25 15 0
8 -48 6 -54 -3z"/>
<path d="M6309 3506 c-2 -3 -30 -6 -62 -8 -53 -3 -57 -4 -57 -28 0 -18 3 -21
9 -12 7 11 17 8 51 -15 47 -30 40 -39 -26 -31 -34 4 -41 -5 -25 -31 6 -9 11
-10 15 -2 4 6 32 11 62 11 48 0 54 2 54 21 0 12 -4 17 -11 14 -5 -4 -29 6 -52
21 -46 31 -38 40 29 32 28 -3 34 -1 34 14 0 17 -11 24 -21 14z"/>
<path d="M10 3375 c0 -51 19 -69 58 -54 18 7 31 5 48 -6 27 -18 34 -19 34 -5
0 5 -13 16 -30 25 -16 9 -30 22 -30 30 0 18 46 20 53 3 3 -7 5 3 5 22 0 19 -2
29 -5 23 -6 -15 -55 -17 -101 -4 l-32 10 0 -44z m59 6 c21 -13 5 -41 -24 -41
-20 0 -25 5 -25 25 0 26 22 33 49 16z"/>
<path d="M6330 3349 c0 -7 -23 -10 -65 -7 l-65 3 1 -35 c0 -19 3 -28 6 -20 9
24 25 30 76 30 39 0 47 -3 47 -18 0 -11 -10 -24 -22 -30 -23 -10 -23 -11 5
-11 26 -1 27 1 27 49 0 28 -2 50 -5 50 -3 0 -5 -5 -5 -11z"/>
<path d="M0 3235 c0 -56 12 -74 42 -62 8 4 5 8 -9 12 -13 4 -23 14 -23 21 0
19 116 20 123 2 3 -7 5 3 5 22 0 19 -2 29 -5 23 -3 -8 -25 -13 -59 -13 -47 0
-54 3 -54 19 0 12 8 21 23 24 16 3 13 5 -10 6 l-33 1 0 -55z"/>
<path d="M6201 3210 c0 -14 3 -19 6 -12 2 6 18 12 34 12 27 0 29 -3 29 -35 0
-32 -2 -35 -29 -35 -16 0 -32 6 -34 13 -3 6 -6 1 -6 -13 -1 -24 1 -25 69 -25
68 0 70 1 69 25 0 14 -3 19 -6 13 -2 -7 -16 -13 -29 -13 -21 0 -24 5 -24 35 0
30 3 35 24 35 13 0 27 -6 29 -12 3 -7 6 -2 6 12 1 24 -1 25 -69 25 -68 0 -70
-1 -69 -25z"/>
<path d="M118 3148 c7 -7 12 -22 12 -35 0 -18 -6 -23 -26 -23 -21 0 -25 4 -21
20 4 15 0 20 -13 20 -13 0 -17 -5 -13 -20 4 -16 0 -20 -21 -20 -29 0 -36 26
-13 49 10 11 9 13 -3 9 -10 -3 -16 -21 -18 -54 -3 -39 -1 -47 9 -36 7 6 36 12
65 12 33 0 54 -5 57 -12 3 -7 6 13 6 45 1 47 -2 57 -16 57 -13 0 -14 -3 -5
-12z"/>
<path d="M6200 3081 c0 -14 5 -18 20 -14 17 4 20 0 20 -25 0 -30 -24 -51 -34
-29 -2 7 -5 -9 -5 -35 -1 -43 1 -47 30 -57 18 -6 45 -11 60 -11 23 0 29 -5 29
-21 0 -21 -3 -21 -57 -15 -32 4 -61 12 -65 19 -4 7 -7 -3 -7 -23 0 -19 3 -29
6 -23 6 16 114 6 125 -11 4 -6 8 12 8 39 l0 51 -32 -3 c-41 -4 -83 17 -83 41
0 14 15 23 63 38 34 10 62 23 62 29 0 5 -21 19 -47 29 -27 11 -56 24 -65 30
-24 14 -28 13 -28 -9z m90 -35 c31 -13 31 -13 9 -19 -39 -11 -49 -8 -49 13 0
24 -1 24 40 6z"/>
<path d="M130 3032 c0 -10 -16 -13 -65 -10 -51 2 -64 0 -60 -10 3 -8 6 -32 6
-55 1 -23 3 -34 6 -23 4 16 12 18 55 14 28 -3 54 -11 59 -19 4 -7 11 -10 15
-6 15 15 -17 30 -71 35 -46 4 -55 8 -55 24 0 18 6 19 65 16 65 -3 74 2 55 32
-7 11 -10 12 -10 2z"/>
<path d="M48 2884 c-28 -15 -38 -53 -20 -81 14 -22 59 -33 92 -22 51 18 53 85
4 107 -32 15 -43 15 -76 -4z m99 -30 c12 -31 -11 -49 -63 -49 -39 0 -49 4 -52
18 -6 30 17 47 65 47 31 0 45 -5 50 -16z"/>
<path d="M6182 2772 c3 -45 4 -47 36 -50 29 -3 33 0 38 27 7 33 30 41 52 19 9
-9 12 -7 12 12 0 22 -4 25 -37 25 -21 0 -53 3 -71 7 l-33 8 3 -48z m63 -7 c0
-31 -49 -28 -53 3 -3 20 0 23 25 20 20 -2 28 -8 28 -23z"/>
<path d="M158 2758 c-3 -7 -28 -12 -66 -12 -61 -1 -62 -2 -58 -26 3 -14 8 -42
12 -63 5 -29 9 -35 19 -27 7 6 38 11 69 13 45 2 56 5 56 19 0 19 -17 33 -22
18 -2 -6 -28 -11 -58 -13 -53 -2 -55 -1 -58 26 -3 25 -1 27 35 29 21 1 50 2
64 1 22 0 25 3 21 23 -5 27 -8 30 -14 12z"/>
<path d="M6166 2684 c-10 -26 -7 -38 7 -26 16 13 106 -1 118 -19 6 -10 9 -7 9
11 0 23 -4 25 -47 28 -25 2 -54 7 -64 12 -12 7 -19 5 -23 -6z"/>
<path d="M6146 2575 c-10 -28 -7 -32 24 -27 26 4 30 1 30 -19 0 -13 -4 -29 -8
-36 -9 -15 -52 -6 -53 11 0 9 -16 -20 -18 -34 -1 -3 18 -6 40 -7 23 -2 54 -9
70 -17 28 -14 29 -14 29 10 0 15 -4 22 -10 19 -6 -3 -18 -4 -29 0 -13 4 -17
12 -13 31 5 29 28 42 45 25 17 -17 27 -13 27 10 0 11 -4 18 -8 15 -11 -7 -106
15 -113 26 -3 5 -9 2 -13 -7z"/>
<path d="M143 2563 c-10 -10 -27 -17 -37 -15 -29 6 -39 -12 -31 -58 6 -33 10
-40 23 -35 52 22 111 32 116 21 3 -6 3 7 -1 29 -7 48 -9 52 -33 65 -15 8 -24
6 -37 -7z m55 -39 c4 -29 -45 -41 -53 -13 -9 26 3 41 28 37 14 -2 23 -11 25
-24z m-64 -10 c8 -20 8 -19 -21 -28 -24 -8 -38 7 -29 29 7 20 42 19 50 -1z"/>
<path d="M6110 2430 c0 -11 6 -19 13 -17 7 1 12 -8 12 -23 0 -19 -5 -25 -22
-24 -15 0 -23 -5 -23 -17 0 -15 8 -16 63 -12 72 5 87 9 87 21 0 5 -20 7 -45 4
-41 -4 -45 -3 -45 17 0 25 8 26 38 5 13 -9 25 -14 28 -12 2 3 -21 21 -51 42
-50 33 -55 34 -55 16z"/>
<path d="M120 2420 c-11 -11 -20 -27 -20 -35 0 -10 8 -6 25 10 45 46 129 25
98 -24 -15 -24 -71 -37 -94 -23 -11 7 -19 8 -19 2 0 -14 35 -30 65 -30 36 0
78 44 70 73 -4 12 -14 28 -23 35 -24 19 -79 15 -102 -8z"/>
<path d="M250 2323 c0 -4 -12 -20 -25 -36 -24 -27 -25 -27 -60 -12 -33 13 -36
13 -33 -2 2 -10 15 -17 36 -18 18 -2 36 -6 40 -9 10 -11 -21 -27 -40 -22 -10
2 -18 -1 -18 -7 0 -15 20 -46 20 -31 0 12 99 46 112 38 4 -3 8 4 8 15 0 25
-16 36 -24 16 -6 -16 -46 -21 -46 -6 0 5 7 14 16 21 23 20 36 48 24 55 -5 3
-10 3 -10 -2z"/>
<path d="M6067 2259 c-3 -11 0 -16 7 -13 7 3 32 -4 57 -15 l44 -21 -57 0 c-31
0 -59 -4 -62 -8 -3 -5 18 -26 47 -46 29 -21 43 -35 32 -32 -11 3 -37 8 -57 12
-21 3 -38 11 -39 18 0 10 -37 -61 -38 -76 -1 -4 5 -5 13 -2 19 7 25 -7 15 -35
-7 -17 -15 -22 -29 -18 -11 3 -20 4 -20 2 0 -2 -2 -10 -5 -17 -4 -11 11 -14
70 -17 92 -3 95 7 25 67 -28 24 -47 48 -44 54 4 6 24 7 51 3 60 -9 74 -15 66
-28 -3 -6 -1 -7 5 -3 22 13 12 41 -25 73 l-38 32 51 1 c38 0 54 4 58 16 8 22
8 26 -4 19 -6 -4 -35 7 -64 23 -49 27 -55 28 -59 11z m14 -229 l24 -19 -31 -1
c-35 0 -45 6 -37 26 7 19 16 18 44 -6z"/>
<path d="M223 2175 c-47 -20 -55 -61 -19 -92 15 -13 36 -23 47 -23 10 0 19 -7
19 -15 0 -14 -18 -20 -48 -16 -10 2 -11 -2 -3 -17 10 -20 11 -20 51 0 22 11
51 21 65 22 17 1 23 6 20 14 -3 8 -5 15 -5 17 0 2 -12 -3 -27 -10 -38 -20 -53
-2 -25 28 29 30 28 71 0 91 -27 19 -34 19 -75 1z m75 -17 c22 -22 13 -45 -23
-62 -44 -21 -75 -13 -75 19 0 39 71 70 98 43z"/>
<path d="M358 1993 c38 -26 21 -70 -34 -87 -41 -13 -77 21 -53 50 9 11 8 14
-5 14 -23 0 -20 -43 4 -65 41 -37 120 -10 120 42 0 34 -18 63 -38 62 -14 0
-13 -3 6 -16z"/>
<path d="M5951 1954 c-10 -23 -10 -25 1 -16 21 17 42 -2 34 -32 -5 -19 -1 -31
14 -46 32 -32 51 -24 75 34 9 21 12 35 6 32 -10 -6 -101 32 -112 47 -3 4 -11
-5 -18 -19z m87 -40 c23 -6 30 -38 12 -49 -20 -12 -50 6 -50 31 0 26 3 27 38
18z"/>
<path d="M356 1854 c-27 -30 -46 -57 -43 -60 3 -4 40 -3 81 2 62 7 74 12 66
23 -7 12 -11 12 -24 2 -12 -10 -17 -9 -26 9 -13 25 -6 55 12 44 8 -5 9 -2 5
10 -4 10 -7 20 -7 22 0 12 -20 -4 -64 -52z m42 -39 c-1 -2 -17 -7 -33 -11
l-30 -7 24 27 c22 23 26 24 34 10 5 -8 7 -17 5 -19z"/>
<path d="M5900 1838 c-11 -12 -20 -28 -20 -35 0 -7 0 -16 -1 -20 0 -4 4 -9 9
-11 5 -1 7 9 5 22 -4 20 0 28 20 37 48 22 118 -39 87 -76 -7 -8 -17 -12 -22
-8 -6 3 -9 0 -7 -6 13 -39 56 20 45 62 -6 26 -50 57 -80 57 -8 0 -24 -10 -36
-22z"/>
<path d="M433 1773 c-7 -2 -13 -13 -13 -22 0 -11 -7 -17 -21 -17 -37 2 -45
-27 -20 -68 19 -30 25 -34 35 -23 17 21 86 58 97 52 16 -11 10 11 -14 46 -22
34 -40 42 -64 32z m57 -33 c8 -16 6 -21 -11 -31 -17 -9 -25 -8 -37 5 -13 12
-13 18 -2 30 17 22 37 20 50 -4z m-61 -34 c10 -12 8 -17 -9 -26 -26 -14 -46 0
-37 24 8 20 31 21 46 2z"/>
<path d="M5804 1669 c-4 -6 -2 -14 4 -18 12 -7 45 -91 36 -91 -12 0 -63 31
-66 40 -2 6 -9 1 -16 -10 -10 -17 -10 -20 6 -20 10 0 39 -13 64 -29 38 -24 47
-27 52 -14 8 21 7 25 -3 19 -7 -5 -41 71 -41 91 0 6 55 -30 67 -45 10 -11 13
-10 23 7 9 17 8 21 -6 21 -9 0 -38 13 -65 30 -31 19 -51 26 -55 19z"/>
<path d="M516 1614 c-9 -8 -16 -20 -16 -25 0 -6 -5 -7 -10 -4 -14 9 -40 -13
-40 -34 1 -29 27 -54 47 -45 16 7 16 8 -4 11 -27 5 -36 28 -17 44 12 10 20 10
34 1 15 -9 17 -8 13 7 -2 9 3 23 11 30 21 17 50 -4 43 -31 -5 -18 4 -24 16
-12 9 10 -20 61 -38 68 -22 8 -21 8 -39 -10z"/>
<path d="M5721 1524 c-12 -15 -21 -32 -21 -39 0 -20 28 -38 49 -32 13 3 21 -1
24 -14 6 -21 39 -25 55 -6 19 23 24 57 9 57 -8 0 -13 -10 -13 -22 1 -17 -5
-23 -19 -23 -16 0 -20 6 -18 29 2 27 1 27 -16 12 -10 -9 -25 -14 -35 -10 -23
9 -20 43 6 53 13 5 17 10 11 14 -6 4 -21 -5 -32 -19z"/>
<path d="M608 1532 c-6 -16 -96 -71 -103 -64 -4 4 -2 -4 5 -17 7 -14 15 -19
19 -13 4 7 24 8 56 4 l49 -7 -29 -19 c-16 -11 -35 -19 -42 -19 -17 0 -16 -12
2 -27 8 -7 15 -8 15 -3 0 13 75 63 95 63 13 0 13 3 3 20 -7 11 -16 20 -21 20
-4 0 -5 -5 -1 -12 5 -8 -4 -9 -32 -5 -21 4 -48 7 -59 7 -15 0 -11 6 18 25 20
14 42 23 48 19 8 -4 7 0 0 15 -13 23 -17 26 -23 13z"/>
<path d="M5630 1390 c-11 -15 -20 -37 -20 -48 0 -23 25 -46 40 -37 6 4 18 -3
28 -15 21 -26 42 -20 65 18 16 28 15 29 -11 44 -15 9 -40 28 -54 42 l-28 25
-20 -29z m50 -36 c0 -6 -7 -17 -15 -24 -28 -23 -60 21 -34 47 13 13 49 -4 49
-23z m44 -27 c7 -11 7 -20 0 -27 -15 -15 -44 -2 -44 19 0 35 25 39 44 8z"/>
<path d="M5571 1317 c-13 -13 -15 -31 -2 -22 15 8 25 -15 12 -28 -17 -17 -13
-31 5 -16 14 11 19 9 34 -11 10 -14 17 -26 16 -27 -6 -6 -96 31 -96 39 0 14
-18 9 -23 -7 -5 -10 12 -20 63 -36 38 -13 72 -20 76 -17 3 4 -12 36 -34 72
-29 49 -42 62 -51 53z"/>
<path d="M785 1261 c-3 -5 5 -11 17 -13 32 -4 36 -43 7 -74 -39 -41 -100 -25
-83 21 5 11 2 13 -10 9 -22 -9 -20 -21 9 -49 31 -32 65 -32 99 0 32 30 33 65
3 93 -26 24 -33 26 -42 13z"/>
<path d="M5460 1178 c-22 -24 -25 -34 -11 -43 5 -3 11 5 13 17 2 19 9 23 37
23 43 0 82 -45 64 -73 -6 -9 -21 -16 -33 -14 -13 1 -20 -3 -18 -10 13 -38 68
4 68 51 0 20 -9 36 -26 50 -34 27 -68 27 -94 -1z"/>
<path d="M909 1136 c9 -10 8 -16 -4 -26 -13 -10 -19 -10 -33 4 -22 19 -53 21
-70 4 -18 -18 -14 -39 13 -68 l26 -27 45 45 c34 35 47 43 56 34 9 -9 5 -27
-20 -77 -17 -35 -27 -67 -23 -70 5 -3 37 7 71 21 39 17 64 24 70 18 13 -13
-46 -94 -68 -94 -15 0 -15 -2 1 -17 16 -16 19 -16 62 5 25 12 45 19 45 16 0
-2 -9 -22 -20 -43 l-19 -39 21 -18 c12 -11 18 -14 14 -7 -4 7 13 27 43 52 45
35 49 40 34 53 -9 7 -14 8 -10 2 3 -6 -12 -28 -33 -49 -46 -45 -47 -43 -20 20
11 26 20 51 20 57 0 5 -25 -4 -56 -21 -61 -35 -62 -24 -6 37 l29 31 -29 28
c-24 23 -30 25 -38 13 -7 -12 -13 -12 -27 -4 -24 15 -29 44 -7 44 12 0 7 11
-22 44 -22 24 -43 45 -48 45 -5 1 -3 -5 3 -13z m-52 -63 c-27 -27 -47 -24 -47
7 0 26 29 41 53 28 19 -10 18 -11 -6 -35z m123 -73 c0 -6 -44 -30 -56 -30 -2
0 3 14 11 31 13 25 19 28 31 18 8 -6 14 -15 14 -19z"/>
<path d="M5401 1117 c-13 -13 -15 -30 -2 -23 12 8 44 -31 36 -43 -4 -8 -12 -8
-25 -1 -67 36 -123 -46 -67 -98 28 -26 69 -28 92 -5 15 15 16 36 4 83 -6 24
24 17 37 -8 11 -22 11 -22 29 -2 15 17 16 20 3 20 -9 0 -34 20 -56 44 -29 31
-43 41 -51 33z m29 -117 c13 -24 -3 -60 -26 -60 -20 0 -74 54 -74 74 0 42 75
32 100 -14z"/>
<path d="M5262 978 c-14 -14 -16 -32 -3 -23 10 6 36 -33 28 -42 -3 -2 -21 0
-40 5 -20 6 -38 7 -41 4 -13 -13 -4 -20 33 -26 33 -5 40 -10 46 -36 4 -16 3
-35 0 -41 -5 -7 0 -7 15 1 13 7 18 15 12 19 -9 5 -16 41 -13 65 1 5 10 1 21
-9 11 -10 17 -22 14 -26 -8 -13 10 -11 23 2 8 8 0 21 -29 47 -22 20 -43 44
-47 54 -5 15 -9 16 -19 6z"/>
<path d="M5140 860 c-27 -27 -25 -66 5 -95 29 -30 65 -32 88 -7 24 27 21 69
-8 97 -29 30 -58 32 -85 5z m90 -49 c14 -35 7 -51 -22 -51 -47 0 -95 89 -55
103 21 8 64 -21 77 -52z"/>
<path d="M1190 780 c-13 -38 -21 -72 -18 -76 4 -3 36 12 73 34 56 33 63 41 50
52 -12 10 -15 10 -15 -4 0 -21 -23 -20 -43 2 -21 23 -21 30 1 34 15 3 15 5 -4
15 -19 11 -22 7 -44 -57z m48 -13 c9 -10 4 -17 -18 -31 -33 -19 -35 -18 -18
19 13 28 21 31 36 12z"/>
<path d="M5040 780 c-35 -33 -36 -60 -2 -75 12 -5 25 -17 27 -26 9 -29 31 -29
71 -1 26 18 34 28 24 30 -19 5 -73 69 -73 88 0 21 -11 17 -47 -16z m40 -15
c17 -20 5 -45 -20 -45 -11 0 -23 7 -26 15 -6 15 11 45 26 45 4 0 13 -7 20 -15z
m40 -50 c15 -18 6 -45 -15 -45 -18 0 -30 24 -21 45 7 19 20 19 36 0z"/>
<path d="M1316 742 c-4 -10 -21 -35 -40 -55 -23 -25 -30 -39 -22 -47 12 -12
30 -14 22 -2 -2 4 2 16 10 26 12 18 15 18 39 2 30 -20 32 -32 6 -48 -15 -9
-17 -15 -9 -25 6 -7 15 -13 21 -13 6 0 7 3 4 6 -10 10 54 94 72 94 13 1 12 3
-4 15 -18 14 -20 13 -32 -10 -16 -30 -24 -31 -52 -7 -20 16 -21 18 -6 40 10
13 21 19 28 15 7 -4 6 0 -2 10 -17 22 -28 22 -35 -1z"/>
<path d="M1480 635 c0 -21 -48 -95 -61 -95 -8 0 -7 -5 1 -15 18 -22 23 -19 42
23 10 21 27 48 38 60 20 21 20 21 0 32 -16 9 -20 8 -20 -5z"/>
<path d="M1522 588 c-19 -19 -14 -54 10 -70 20 -13 21 -18 9 -32 -7 -8 -17
-13 -22 -10 -5 3 -9 1 -9 -4 0 -9 30 -26 35 -20 1 2 14 24 29 50 15 26 35 48
44 50 12 2 7 9 -19 26 -41 25 -60 27 -77 10z m63 -18 c8 -12 -16 -50 -33 -50
-16 0 -26 25 -18 45 6 17 41 20 51 5z"/>
<path d="M1645 540 c8 -13 -45 -111 -56 -104 -5 3 -9 1 -9 -4 0 -4 17 -17 38
-27 54 -28 55 -29 48 -17 -8 13 8 48 37 79 14 16 24 20 37 13 15 -8 16 -17 8
-71 -4 -35 -5 -66 -1 -70 5 -4 34 15 66 42 54 46 56 49 36 60 -12 6 -19 7 -15
1 3 -5 0 -15 -7 -21 -20 -16 -62 15 -47 35 10 11 5 17 -25 31 -37 18 -37 18
-59 -7 -11 -14 -28 -37 -38 -50 -12 -19 -19 -22 -28 -14 -9 9 -7 21 9 52 12
23 28 45 36 50 13 7 12 10 -10 20 -15 7 -24 8 -20 2z m155 -130 c12 -7 11 -13
-9 -34 -29 -31 -35 -28 -26 13 7 33 12 36 35 21z"/>
<path d="M4551 471 c-9 -6 -10 -10 -2 -12 9 -3 9 -18 -1 -57 l-12 -54 -18 37
c-10 19 -16 41 -12 47 5 8 2 9 -10 5 -10 -4 -20 -7 -22 -7 -2 0 9 -26 25 -59
17 -32 27 -61 24 -65 -9 -9 10 -7 26 3 7 5 11 13 7 19 -8 13 4 92 14 92 9 0
36 -61 32 -72 -3 -11 10 -10 27 1 12 8 12 11 -1 25 -9 8 -24 36 -34 60 -20 49
-22 50 -43 37z"/>
<path d="M1859 355 c-22 -53 -24 -65 -12 -69 21 -8 22 -8 17 12 -8 31 9 45 39
31 30 -14 34 -30 12 -52 -13 -13 -13 -16 1 -21 22 -8 24 -8 24 7 0 6 11 35 24
64 21 44 22 52 9 57 -21 8 -23 8 -17 -7 2 -7 -2 -21 -9 -31 -12 -16 -16 -17
-39 -5 -21 12 -24 18 -17 37 5 12 14 22 21 22 9 0 9 3 -2 10 -23 15 -23 14
-51 -55z"/>
<path d="M4398 394 c-32 -17 -37 -48 -9 -65 10 -7 16 -20 14 -29 -2 -9 2 -22
11 -29 12 -10 20 -10 42 1 28 13 44 38 25 38 -6 0 -11 -7 -11 -15 0 -20 -39
-19 -47 1 -4 11 1 23 13 32 18 14 18 14 -3 9 -26 -6 -48 16 -39 39 4 11 14 15
32 11 15 -2 23 0 21 6 -5 17 -20 17 -49 1z"/>
<path d="M2048 342 c10 -7 8 -19 -8 -58 -26 -59 -23 -56 -44 -48 -11 4 -15 13
-11 25 4 11 2 19 -3 19 -5 0 -12 -9 -15 -21 -4 -16 1 -24 28 -35 40 -16 59
-18 50 -5 -7 13 24 93 42 107 11 9 9 13 -9 18 -32 8 -45 7 -30 -2z"/>
<path d="M4250 332 c-40 -20 -51 -53 -23 -74 10 -7 18 -22 18 -33 0 -13 8 -21
23 -23 29 -4 88 18 72 28 -14 9 -51 106 -43 114 12 12 -12 6 -47 -12z m30 -22
c13 -25 5 -40 -21 -40 -25 0 -35 25 -19 45 17 20 27 19 40 -5z m25 -60 c8 -24
-1 -40 -21 -40 -20 0 -29 27 -14 45 17 20 27 19 35 -5z"/>
<path d="M2122 314 c7 -6 -20 -92 -34 -110 -5 -8 -3 -14 8 -18 21 -8 26 -8 20
3 -6 9 73 66 81 58 2 -3 -4 -23 -15 -46 -18 -36 -18 -40 -3 -43 12 -3 19 10
29 47 7 27 19 55 28 62 15 11 13 15 -18 26 -11 4 -15 2 -12 -6 2 -7 -17 -25
-42 -40 -35 -21 -45 -24 -40 -12 3 9 9 28 12 41 3 13 10 24 16 24 5 0 6 5 3
10 -3 6 -13 10 -22 10 -9 0 -14 -3 -11 -6z"/>
<path d="M4160 300 c-10 -6 -11 -10 -2 -10 13 0 18 -30 5 -30 -5 0 -18 -3 -30
-6 -17 -5 -23 -2 -23 10 0 9 -6 16 -13 16 -25 0 -26 -12 -2 -38 12 -15 34 -40
48 -57 14 -16 28 -28 30 -25 10 9 20 150 11 150 -5 0 -16 -5 -24 -10z m10 -82
l-1 -33 -20 24 c-15 19 -17 26 -7 32 22 15 28 10 28 -23z"/>
<path d="M2260 254 c0 -13 3 -14 14 -5 36 30 71 -32 45 -78 -17 -30 -69 -43
-69 -17 0 9 -4 16 -10 16 -16 0 -11 -27 6 -34 34 -13 73 -6 88 16 24 33 20 84
-6 102 -30 21 -68 21 -68 0z"/>
<path d="M3993 248 c-13 -6 -23 -18 -23 -27 1 -14 2 -13 11 2 5 9 21 17 35 17
19 0 28 -8 41 -37 19 -47 8 -69 -36 -67 -17 1 -31 -2 -31 -6 0 -33 76 -11 90
26 11 29 -5 81 -30 94 -22 12 -29 12 -57 -2z"/>
<path d="M3920 231 c-17 -5 -21 -9 -12 -15 14 -8 17 -56 3 -56 -5 0 -16 11
-25 25 -20 31 -65 33 -91 5 -22 -24 -15 -88 12 -107 38 -29 93 0 93 49 0 10 6
18 14 18 16 0 31 -34 22 -48 -3 -5 6 -7 19 -4 20 3 22 6 11 18 -15 15 -31 99
-21 114 3 5 5 10 3 9 -2 -1 -14 -4 -28 -8z m-60 -46 c20 -24 18 -85 -3 -99
-15 -9 -22 -7 -38 13 -21 26 -26 87 -6 94 22 9 34 7 47 -8z"/>
<path d="M2449 216 c15 -18 -7 -116 -26 -116 -7 0 -13 9 -13 20 0 11 -5 20
-11 20 -6 0 -9 -10 -7 -22 2 -17 14 -25 52 -34 57 -15 66 -12 66 19 -1 20 -2
20 -11 5 -11 -20 -39 -25 -39 -7 0 35 24 99 38 99 22 0 10 9 -27 20 -27 7 -31
7 -22 -4z"/>
<path d="M2555 191 c5 -9 -7 -79 -20 -113 -5 -12 3 -17 30 -22 47 -9 69 7 61
47 -4 21 0 34 19 53 17 17 20 24 9 24 -8 0 -26 -12 -39 -27 -16 -19 -27 -25
-34 -18 -13 13 -2 57 12 48 6 -3 7 -1 3 5 -4 7 -16 12 -27 12 -11 0 -18 -4
-14 -9z m55 -102 c0 -23 -27 -36 -42 -21 -6 6 -8 22 -4 36 6 23 9 25 26 16 11
-6 20 -20 20 -31z"/>
<path d="M3710 180 c-8 -5 -10 -10 -4 -10 7 0 14 -11 16 -25 4 -17 1 -25 -8
-25 -8 0 -21 11 -30 25 -9 14 -25 25 -35 25 -16 0 -13 -6 16 -31 l35 -32 -19
-33 -20 -34 20 0 c11 0 18 4 14 9 -6 11 15 61 27 61 7 0 12 -18 11 -47 -1 -7
8 -13 19 -13 16 0 18 3 9 14 -6 7 -12 39 -14 70 -2 56 -9 64 -37 46z"/>
<path d="M2701 163 c13 -3 14 -12 8 -51 -4 -26 -8 -52 -8 -59 -1 -20 -31 -2
-31 18 0 10 -4 19 -10 19 -5 0 -10 -11 -10 -24 0 -22 6 -26 53 -33 61 -11 67
-9 67 20 -1 20 -2 20 -11 5 -5 -10 -17 -18 -25 -18 -12 0 -14 8 -9 37 11 71
16 84 25 78 6 -3 10 -1 10 4 0 6 -17 10 -37 10 -21 -1 -31 -3 -22 -6z"/>
<path d="M3552 159 c-44 -17 -53 -86 -16 -123 37 -38 99 -1 97 58 -2 57 -34
82 -81 65z m46 -21 c25 -25 10 -108 -19 -108 -29 0 -55 91 -32 113 10 11 38 8
51 -5z"/>
<path d="M2796 145 c-6 -16 9 -21 18 -6 3 4 16 6 29 4 19 -4 23 -10 19 -29 -5
-25 -27 -33 -35 -11 -3 6 -6 2 -6 -10 -1 -16 3 -20 19 -16 16 4 20 0 20 -21 0
-21 -5 -26 -25 -26 -14 0 -25 5 -25 10 0 6 -4 10 -10 10 -5 0 -10 -6 -10 -14
0 -11 46 -25 85 -26 6 0 9 21 7 49 -2 27 1 58 7 69 9 17 7 21 -12 26 -39 10
-75 6 -81 -9z"/>
<path d="M2928 89 c3 -44 0 -64 -10 -70 -10 -7 -8 -9 7 -9 11 0 38 -2 60 -5
22 -3 34 -3 28 1 -15 7 -17 62 -3 99 5 14 14 23 20 20 5 -3 10 -1 10 4 0 6 -4
11 -9 11 -17 0 -35 -32 -40 -73 -4 -29 -11 -43 -23 -45 -15 -3 -18 5 -18 52 0
33 4 56 11 56 5 0 7 5 4 10 -3 6 -14 10 -23 10 -15 0 -16 -9 -14 -61z"/>
<path d="M3397 132 c-20 -22 -21 -34 -5 -50 7 -7 12 -24 13 -40 0 -25 3 -27
47 -30 l47 -3 -10 31 c-6 17 -9 48 -7 70 4 40 4 40 -33 40 -22 0 -42 -7 -52
-18z m63 -22 c0 -25 -4 -30 -24 -30 -28 0 -42 26 -25 46 6 8 20 14 30 14 14 0
19 -7 19 -30z m4 -56 c10 -27 7 -34 -19 -34 -18 0 -25 5 -25 18 0 34 33 45 44
16z"/>
<path d="M3075 115 c-29 -28 -32 -61 -9 -93 18 -26 65 -30 88 -6 38 37 12 124
-36 124 -10 0 -30 -11 -43 -25z m63 3 c14 -14 16 -76 3 -96 -4 -8 -19 -12 -32
-10 -20 3 -24 9 -27 46 -4 60 25 91 56 60z"/>
<path d="M3200 114 c14 -36 12 -101 -2 -107 -7 -3 17 -6 53 -6 l66 -1 -9 62
c-6 46 -5 64 4 70 9 5 4 8 -13 8 -21 0 -26 -4 -23 -22 14 -105 14 -108 -16
-108 -26 0 -28 3 -33 52 -3 29 0 59 5 66 8 9 4 12 -16 12 -23 0 -25 -2 -16
-26z"/>
</g>
</svg>
